<svg width="32" height="32" viewBox="0 0 32 32" fill="none" xmlns="http://www.w3.org/2000/svg">
<path d="M4 0C2.93913 0 1.92172 0.421427 1.17157 1.17157C0.421427 1.92172 0 2.93913 0 4V30C0 30.5304 0.210714 31.0391 0.585786 31.4142C0.960859 31.7893 1.46957 32 2 32H17C17.2652 32 17.5196 31.8946 17.7071 31.7071C17.8946 31.5196 18 31.2652 18 31V27C18 26.7348 18.1054 26.4804 18.2929 26.2929C18.4804 26.1054 18.7348 26 19 26H25C25.2652 26 25.5196 26.1054 25.7071 26.2929C25.8946 26.4804 26 26.7348 26 27V31C26 31.2652 26.1054 31.5196 26.2929 31.7071C26.4804 31.8946 26.7348 32 27 32H30C30.5304 32 31.0391 31.7893 31.4142 31.4142C31.7893 31.0391 32 30.5304 32 30V10C32 8.93913 31.5786 7.92172 30.8284 7.17157C30.0783 6.42143 29.0609 6 28 6H20V4C20 2.93913 19.5786 1.92172 18.8284 1.17157C18.0783 0.421427 17.0609 0 16 0H4ZM18 6H16C14.9391 6 13.9217 6.42143 13.1716 7.17157C12.4214 7.92172 12 8.93913 12 10V30H2V4C2 3.46957 2.21071 2.96086 2.58579 2.58579C2.96086 2.21071 3.46957 2 4 2H16C16.5304 2 17.0391 2.21071 17.4142 2.58579C17.7893 2.96086 18 3.46957 18 4V6ZM6.5 15C6.89782 15 7.27936 14.842 7.56066 14.5607C7.84196 14.2794 8 13.8978 8 13.5C8 13.1022 7.84196 12.7206 7.56066 12.4393C7.27936 12.158 6.89782 12 6.5 12C6.10218 12 5.72064 12.158 5.43934 12.4393C5.15804 12.7206 5 13.1022 5 13.5C5 13.8978 5.15804 14.2794 5.43934 14.5607C5.72064 14.842 6.10218 15 6.5 15ZM8 7.5C8 7.89782 7.84196 8.27936 7.56066 8.56066C7.27936 8.84196 6.89782 9 6.5 9C6.10218 9 5.72064 8.84196 5.43934 8.56066C5.15804 8.27936 5 7.89782 5 7.5C5 7.10218 5.15804 6.72064 5.43934 6.43934C5.72064 6.15804 6.10218 6 6.5 6C6.89782 6 7.27936 6.15804 7.56066 6.43934C7.84196 6.72064 8 7.10218 8 7.5ZM6.5 27C6.89782 27 7.27936 26.842 7.56066 26.5607C7.84196 26.2794 8 25.8978 8 25.5C8 25.1022 7.84196 24.7206 7.56066 24.4393C7.27936 24.158 6.89782 24 6.5 24C6.10218 24 5.72064 24.158 5.43934 24.4393C5.15804 24.7206 5 25.1022 5 25.5C5 25.8978 5.15804 26.2794 5.43934 26.5607C5.72064 26.842 6.10218 27 6.5 27ZM8 19.5C8 19.8978 7.84196 20.2794 7.56066 20.5607C7.27936 20.842 6.89782 21 6.5 21C6.10218 21 5.72064 20.842 5.43934 20.5607C5.15804 20.2794 5 19.8978 5 19.5C5 19.1022 5.15804 18.7206 5.43934 18.4393C5.72064 18.158 6.10218 18 6.5 18C6.89782 18 7.27936 18.158 7.56066 18.4393C7.84196 18.7206 8 19.1022 8 19.5ZM18.5 15C18.1022 15 17.7206 14.842 17.4393 14.5607C17.158 14.2794 17 13.8978 17 13.5C17 13.1022 17.158 12.7206 17.4393 12.4393C17.7206 12.158 18.1022 12 18.5 12C18.8978 12 19.2794 12.158 19.5607 12.4393C19.842 12.7206 20 13.1022 20 13.5C20 13.8978 19.842 14.2794 19.5607 14.5607C19.2794 14.842 18.8978 15 18.5 15ZM20 19.5C20 19.8978 19.842 20.2794 19.5607 20.5607C19.2794 20.842 18.8978 21 18.5 21C18.1022 21 17.7206 20.842 17.4393 20.5607C17.158 20.2794 17 19.8978 17 19.5C17 19.1022 17.158 18.7206 17.4393 18.4393C17.7206 18.158 18.1022 18 18.5 18C18.8978 18 19.2794 18.158 19.5607 18.4393C19.842 18.7206 20 19.1022 20 19.5ZM25.5 15C25.1022 15 24.7206 14.842 24.4393 14.5607C24.158 14.2794 24 13.8978 24 13.5C24 13.1022 24.158 12.7206 24.4393 12.4393C24.7206 12.158 25.1022 12 25.5 12C25.8978 12 26.2794 12.158 26.5607 12.4393C26.842 12.7206 27 13.1022 27 13.5C27 13.8978 26.842 14.2794 26.5607 14.5607C26.2794 14.842 25.8978 15 25.5 15ZM27 19.5C27 19.8978 26.842 20.2794 26.5607 20.5607C26.2794 20.842 25.8978 21 25.5 21C25.1022 21 24.7206 20.842 24.4393 20.5607C24.158 20.2794 24 19.8978 24 19.5C24 19.1022 24.158 18.7206 24.4393 18.4393C24.7206 18.158 25.1022 18 25.5 18C25.8978 18 26.2794 18.158 26.5607 18.4393C26.842 18.7206 27 19.1022 27 19.5Z" fill="white"/>
</svg>
