<svg width="32" height="32" viewBox="0 0 32 32" fill="none" xmlns="http://www.w3.org/2000/svg">
<path d="M12 1C12 0.734784 11.8946 0.48043 11.7071 0.292893C11.5196 0.105357 11.2652 0 11 0C10.7348 0 10.4804 0.105357 10.2929 0.292893C10.1054 0.48043 10 0.734784 10 1V4H9C7.67392 4 6.40215 4.52678 5.46447 5.46447C4.52678 6.40215 4 7.67392 4 9V10H1C0.734784 10 0.48043 10.1054 0.292893 10.2929C0.105357 10.4804 0 10.7348 0 11C0 11.2652 0.105357 11.5196 0.292893 11.7071C0.48043 11.8946 0.734784 12 1 12H4V15H1C0.734784 15 0.48043 15.1054 0.292893 15.2929C0.105357 15.4804 0 15.7348 0 16C0 16.2652 0.105357 16.5196 0.292893 16.7071C0.48043 16.8946 0.734784 17 1 17H4V20H1C0.734784 20 0.48043 20.1054 0.292893 20.2929C0.105357 20.4804 0 20.7348 0 21C0 21.2652 0.105357 21.5196 0.292893 21.7071C0.48043 21.8946 0.734784 22 1 22H4V23C4 24.3261 4.52678 25.5979 5.46447 26.5355C6.40215 27.4732 7.67392 28 9 28H10V31C10 31.2652 10.1054 31.5196 10.2929 31.7071C10.4804 31.8946 10.7348 32 11 32C11.2652 32 11.5196 31.8946 11.7071 31.7071C11.8946 31.5196 12 31.2652 12 31V28H15V31C15 31.2652 15.1054 31.5196 15.2929 31.7071C15.4804 31.8946 15.7348 32 16 32C16.2652 32 16.5196 31.8946 16.7071 31.7071C16.8946 31.5196 17 31.2652 17 31V28H20V31C20 31.2652 20.1054 31.5196 20.2929 31.7071C20.4804 31.8946 20.7348 32 21 32C21.2652 32 21.5196 31.8946 21.7071 31.7071C21.8946 31.5196 22 31.2652 22 31V28H23C24.3261 28 25.5979 27.4732 26.5355 26.5355C27.4732 25.5979 28 24.3261 28 23V22H31C31.2652 22 31.5196 21.8946 31.7071 21.7071C31.8946 21.5196 32 21.2652 32 21C32 20.7348 31.8946 20.4804 31.7071 20.2929C31.5196 20.1054 31.2652 20 31 20H28V17H31C31.2652 17 31.5196 16.8946 31.7071 16.7071C31.8946 16.5196 32 16.2652 32 16C32 15.7348 31.8946 15.4804 31.7071 15.2929C31.5196 15.1054 31.2652 15 31 15H28V12H31C31.2652 12 31.5196 11.8946 31.7071 11.7071C31.8946 11.5196 32 11.2652 32 11C32 10.7348 31.8946 10.4804 31.7071 10.2929C31.5196 10.1054 31.2652 10 31 10H28V9C28 7.67392 27.4732 6.40215 26.5355 5.46447C25.5979 4.52678 24.3261 4 23 4H22V1C22 0.734784 21.8946 0.48043 21.7071 0.292893C21.5196 0.105357 21.2652 0 21 0C20.7348 0 20.4804 0.105357 20.2929 0.292893C20.1054 0.48043 20 0.734784 20 1V4H17V1C17 0.734784 16.8946 0.48043 16.7071 0.292893C16.5196 0.105357 16.2652 0 16 0C15.7348 0 15.4804 0.105357 15.2929 0.292893C15.1054 0.48043 15 0.734784 15 1V4H12V1ZM17.972 11.08L17.14 14H20.198C20.35 14.0001 20.4988 14.0436 20.627 14.1252C20.7552 14.2068 20.8575 14.3233 20.9219 14.4609C20.9863 14.5986 21.0102 14.7517 20.9907 14.9024C20.9713 15.0532 20.9093 15.1952 20.812 15.312L15.496 21.692C14.91 22.392 13.784 21.792 14.044 20.916L14.91 18H11.8C11.6477 18.0002 11.4984 17.9569 11.3699 17.8751C11.2413 17.7934 11.1387 17.6767 11.0743 17.5387C11.0098 17.4007 10.986 17.2471 11.0058 17.096C11.0256 16.945 11.0881 16.8027 11.186 16.686L16.522 10.31C17.102 9.614 18.222 10.208 17.974 11.08H17.972Z" fill="white"/>
</svg>
