<svg width="46" height="45" viewBox="0 0 46 45" fill="none" xmlns="http://www.w3.org/2000/svg">
<path d="M21.45 43.525C23.4 45.475 26.575 45.475 28.525 43.525L44.05 28C46 26.05 46 22.875 44.05 20.925L24.575 1.45C23.6254 0.523255 22.3519 0.00311332 21.025 0L5.5 0C2.75 0 0.5 2.25 0.5 5V20.525C0.5 21.85 1.025 23.125 1.975 24.05L21.45 43.525ZM11.125 7.5C11.9538 7.5 12.7487 7.82924 13.3347 8.41529C13.9208 9.00134 14.25 9.7962 14.25 10.625C14.25 11.4538 13.9208 12.2487 13.3347 12.8347C12.7487 13.4208 11.9538 13.75 11.125 13.75C10.2962 13.75 9.50134 13.4208 8.91529 12.8347C8.32924 12.2487 8 11.4538 8 10.625C8 9.7962 8.32924 9.00134 8.91529 8.41529C9.50134 7.82924 10.2962 7.5 11.125 7.5Z" fill="#4385F3"/>
</svg>
