<svg width="53" height="43" viewBox="0 0 53 43" fill="none" xmlns="http://www.w3.org/2000/svg">
<path d="M31.75 2.74161e-05C35.0809 9.58453e-05 38.3651 0.783185 41.3377 2.2861C44.3103 3.78902 46.8879 5.96968 48.8626 8.65211C50.8373 11.3345 52.1537 14.4436 52.7057 17.7284C53.2577 21.0133 53.0298 24.3819 52.0404 27.5624C51.0509 30.743 49.3276 33.6464 47.0096 36.0383C44.6916 38.4303 41.8437 40.2439 38.6958 41.3327C35.5478 42.4215 32.1881 42.755 28.8875 42.3064C25.587 41.8578 22.4381 40.6396 19.695 38.75H2.38001C1.90495 38.7499 1.44766 38.5694 1.10053 38.2451C0.753407 37.9208 0.542328 37.4768 0.509948 37.0028C0.477568 36.5289 0.626301 36.0603 0.926094 35.6918C1.22589 35.3233 1.65439 35.0823 2.12501 35.0175L2.38001 35L15.55 35.0025C14.5672 33.8471 13.7106 32.59 12.995 31.2525L7.36751 31.25C6.89245 31.2499 6.43516 31.0694 6.08803 30.7451C5.74091 30.4208 5.52983 29.9768 5.49745 29.5028C5.46507 29.0289 5.6138 28.5603 5.91359 28.1918C6.21339 27.8233 6.64189 27.5823 7.11251 27.5175L7.36751 27.5L11.435 27.5025C10.8133 25.4766 10.4981 23.3692 10.5 21.25C10.5 16.005 12.4 11.205 15.5475 7.50003H4.87501C4.39995 7.49988 3.94266 7.31942 3.59553 6.9951C3.24841 6.67078 3.03733 6.22678 3.00495 5.75283C2.97257 5.27887 3.1213 4.8103 3.42109 4.44178C3.72089 4.07326 4.14939 3.83228 4.62001 3.76753L4.87501 3.75003H19.6925C23.2361 1.30142 27.4428 -0.00690608 31.75 2.74161e-05ZM34.635 26.79C33.749 27.2524 32.7649 27.4951 31.7656 27.4977C30.7662 27.5003 29.7809 27.2627 28.8925 26.805L26.1525 29.545C27.7525 30.6275 29.68 31.2625 31.7575 31.2625C33.8425 31.2625 35.7775 30.625 37.38 29.535L34.635 26.79ZM21.755 21.2575C21.755 23.3475 22.395 25.29 23.4925 26.895L26.225 24.1675C25.748 23.2682 25.4991 22.2655 25.5 21.2475C25.5 20.205 25.7575 19.2225 26.21 18.36L23.4825 15.635C22.3532 17.2932 21.751 19.2538 21.755 21.26V21.2575ZM40.045 15.6525L37.3075 18.39C37.7659 19.2787 38.0036 20.2647 38.0005 21.2647C37.9975 22.2646 37.7538 23.2491 37.29 24.135L40.035 26.88C41.125 25.2775 41.76 23.3425 41.76 21.2575C41.76 19.1825 41.1275 17.25 40.045 15.6525ZM31.75 18.75C31.4126 18.7349 31.0757 18.7883 30.7595 18.907C30.4434 19.0257 30.1545 19.2073 29.9104 19.4407C29.6664 19.6741 29.4721 19.9545 29.3394 20.2651C29.2067 20.5756 29.1382 20.9098 29.1382 21.2475C29.1382 21.5852 29.2067 21.9195 29.3394 22.23C29.4721 22.5405 29.6664 22.821 29.9104 23.0544C30.1545 23.2878 30.4434 23.4693 30.7595 23.588C31.0757 23.7067 31.4126 23.7601 31.75 23.745C32.3931 23.7162 33.0002 23.4405 33.4451 22.9753C33.89 22.5101 34.1382 21.8912 34.1382 21.2475C34.1382 20.6038 33.89 19.985 33.4451 19.5197C33.0002 19.0545 32.3931 18.7788 31.75 18.75ZM31.7575 11.255C29.7515 11.2521 27.7912 11.8542 26.1325 12.9825L28.8575 15.7075C29.7544 15.2399 30.7513 14.9967 31.7628 14.9989C32.7743 15.0011 33.7701 15.2485 34.665 15.72L37.395 12.9925C35.7345 11.8572 33.769 11.2515 31.7575 11.255Z" fill="#4385F3"/>
</svg>
