<svg width="35" height="35" viewBox="0 0 35 35" fill="none" xmlns="http://www.w3.org/2000/svg">
<path d="M17.5 11.9026C14.4178 11.9026 11.9024 14.4179 11.9024 17.5001C11.9024 20.5824 14.4178 23.0977 17.5 23.0977C20.5822 23.0977 23.0975 20.5824 23.0975 17.5001C23.0975 14.4179 20.5822 11.9026 17.5 11.9026ZM34.2885 17.5001C34.2885 15.1822 34.3095 12.8852 34.1793 10.5714C34.0491 7.88391 33.436 5.49876 31.4708 3.53352C29.5014 1.56409 27.1204 0.955204 24.4329 0.825028C22.1149 0.694852 19.818 0.715849 17.5042 0.715849C15.1862 0.715849 12.8892 0.694852 10.5755 0.825028C7.88797 0.955204 5.50282 1.56829 3.53758 3.53352C1.56815 5.50296 0.959263 7.88391 0.829087 10.5714C0.698911 12.8894 0.719907 15.1864 0.719907 17.5001C0.719907 19.8139 0.698911 22.1151 0.829087 24.4288C0.959263 27.1163 1.57235 29.5015 3.53758 31.4667C5.50702 33.4362 7.88797 34.045 10.5755 34.1752C12.8934 34.3054 15.1904 34.2844 17.5042 34.2844C19.8222 34.2844 22.1191 34.3054 24.4329 34.1752C27.1204 34.045 29.5056 33.432 31.4708 31.4667C33.4402 29.4973 34.0491 27.1163 34.1793 24.4288C34.3137 22.1151 34.2885 19.8181 34.2885 17.5001ZM17.5 26.1127C12.7339 26.1127 8.88739 22.2662 8.88739 17.5001C8.88739 12.734 12.7339 8.88753 17.5 8.88753C22.2661 8.88753 26.1126 12.734 26.1126 17.5001C26.1126 22.2662 22.2661 26.1127 17.5 26.1127ZM26.4653 10.5462C25.3525 10.5462 24.4539 9.64759 24.4539 8.53479C24.4539 7.422 25.3525 6.52337 26.4653 6.52337C27.5781 6.52337 28.4767 7.422 28.4767 8.53479C28.4771 8.79903 28.4253 9.06074 28.3243 9.30492C28.2233 9.54911 28.0752 9.77098 27.8883 9.95783C27.7015 10.1447 27.4796 10.2928 27.2355 10.3938C26.9913 10.4948 26.7296 10.5466 26.4653 10.5462Z" fill="#D9D9D9"/>
</svg>
