<svg width="50" height="50" viewBox="0 0 50 50" fill="none" xmlns="http://www.w3.org/2000/svg">
<path d="M38 2.62506C38.0006 2.25373 37.891 1.89057 37.6851 1.58161C37.4791 1.27265 37.186 1.03181 36.843 0.889618C36.4999 0.747428 36.1224 0.710291 35.7583 0.782917C35.3941 0.855542 35.0597 1.03466 34.7975 1.29756L27.2975 8.79756C27.1235 8.97201 26.9855 9.17904 26.8916 9.40682C26.7977 9.6346 26.7495 9.87867 26.75 10.1251V20.5988L23.9712 23.3738C23.4153 23.2263 22.833 23.2084 22.2691 23.3214C21.7052 23.4344 21.1748 23.6753 20.7187 24.0257C20.2625 24.376 19.8929 24.8263 19.6383 25.342C19.3837 25.8577 19.2508 26.4249 19.25 27.0001C19.2502 27.5337 19.3644 28.0612 19.5848 28.5472C19.8052 29.0333 20.1269 29.4666 20.5282 29.8184C20.9295 30.1702 21.4013 30.4322 21.912 30.5871C22.4228 30.7419 22.9607 30.7859 23.4898 30.7162C24.0189 30.6465 24.527 30.4647 24.9802 30.1829C25.4334 29.9011 25.8212 29.5257 26.1178 29.082C26.4143 28.6383 26.6127 28.1364 26.6998 27.6099C26.7868 27.0834 26.7605 26.5443 26.6225 26.0288L29.4012 23.2501H39.875C40.1214 23.2505 40.3654 23.2024 40.5932 23.1084C40.821 23.0145 41.028 22.8766 41.2025 22.7026L48.7025 15.2026C48.9654 14.9403 49.1445 14.6059 49.2171 14.2418C49.2897 13.8776 49.2526 13.5001 49.1104 13.1571C48.9682 12.814 48.7274 12.521 48.4184 12.315C48.1095 12.109 47.7463 11.9994 47.375 12.0001H38V2.62506ZM45.29 23.9176C45.9353 28.5869 45.0977 33.3411 42.8956 37.5088C40.6935 41.6766 37.2381 45.0475 33.0171 47.1457C28.796 49.2439 24.0226 49.9634 19.3707 49.2027C14.7187 48.442 10.4231 46.2394 7.09034 42.906C3.75753 39.5725 1.55583 35.2765 0.796017 30.6244C0.0362051 25.9723 0.756663 21.199 2.85569 16.9784C4.95472 12.7578 8.3263 9.30303 12.4945 7.10175C16.6627 4.90046 21.417 4.06387 26.0862 4.71006L24.65 6.14631C24.127 6.66859 23.7122 7.2888 23.4291 7.97149C23.1459 8.65419 23.0001 9.38599 23 10.1251C19.6624 10.1251 16.3998 11.1148 13.6247 12.969C10.8496 14.8233 8.68674 17.4588 7.40951 20.5423C6.13228 23.6258 5.7981 27.0188 6.44922 30.2922C7.10035 33.5656 8.70754 36.5725 11.0675 38.9325C13.4276 41.2925 16.4344 42.8997 19.7078 43.5508C22.9813 44.2019 26.3743 43.8678 29.4578 42.5905C32.5413 41.3133 35.1768 39.1504 37.031 36.3753C38.8853 33.6002 39.875 30.3376 39.875 27.0001C41.3663 26.9987 42.7961 26.4053 43.85 25.3501L45.29 23.9176ZM23 13.8751C20.4041 13.8751 17.8665 14.6448 15.7081 16.087C13.5497 17.5292 11.8675 19.5791 10.8741 21.9773C9.88066 24.3756 9.62074 27.0146 10.1272 29.5606C10.6336 32.1066 11.8836 34.4453 13.7192 36.2808C15.5548 38.1164 17.8934 39.3664 20.4394 39.8729C22.9854 40.3793 25.6244 40.1194 28.0227 39.126C30.421 38.1326 32.4708 36.4503 33.913 34.2919C35.3552 32.1335 36.125 29.5959 36.125 27.0001H30.9537L30.485 27.4688C30.3948 28.9095 29.8909 30.2935 29.0336 31.4548C28.1763 32.6161 27.0021 33.5053 25.6519 34.0158C24.3017 34.5263 22.8329 34.6362 21.4217 34.3326C20.0105 34.0289 18.717 33.3244 17.6963 32.3037C16.6756 31.283 15.9712 29.9895 15.6675 28.5783C15.3638 27.1672 15.4738 25.6984 15.9842 24.3482C16.4947 22.998 17.3839 21.8238 18.5452 20.9665C19.7065 20.1092 21.0906 19.6052 22.5312 19.5151L23 19.0463V13.8751Z" fill="#4385F3"/>
</svg>
